<svg height="512" viewBox="0 0 74 74" width="512" xmlns="http://www.w3.org/2000/svg"><g id="Icons"><path d="m57 35.07a1 1 0 0 1 -1-1v-2.97a1 1 0 1 1 2 0v2.97a1 1 0 0 1 -1 1z"/><path d="m54 72h-34a4 4 0 0 1 -4-4v-62a4 4 0 0 1 4-4h34a4 4 0 0 1 4 4v18.1a1 1 0 0 1 -2 0v-18.1a2 2 0 0 0 -2-2h-34a2 2 0 0 0 -2 2v62a2 2 0 0 0 2 2h34a2 2 0 0 0 2-2v-17.03a1 1 0 0 1 2 0v17.03a4 4 0 0 1 -4 4z"/><path d="m57 44.97a1 1 0 0 1 -1-1v-2.9a1 1 0 1 1 2 0v2.9a1 1 0 0 1 -1 1z"/><path d="m57 13.67h-40a1 1 0 0 1 0-2h40a1 1 0 0 1 0 2z"/><path d="m57 60.156h-40a1 1 0 0 1 0-2h40a1 1 0 0 1 0 2z"/><path d="m37 68.219a3.223 3.223 0 1 1 3.223-3.219 3.227 3.227 0 0 1 -3.223 3.219zm0-4.446a1.223 1.223 0 1 0 1.223 1.227 1.225 1.225 0 0 0 -1.223-1.227z"/><path d="m38.753 9h-7.941a1 1 0 0 1 0-2h7.941a1 1 0 0 1 0 2z"/><path d="m43.188 9h-.788a1 1 0 0 1 0-2h.79a1 1 0 0 1 0 2z"/><path d="m47.675 40.155a1 1 0 0 1 -1-1v-6.31a1 1 0 0 1 2 0v6.31a1 1 0 0 1 -1 1z"/><path d="m50.374 38.631a.993.993 0 0 1 -.516-.144l-5.4-3.262a1 1 0 0 1 1.034-1.712l5.4 3.262a1 1 0 0 1 -.518 1.856z"/><path d="m44.975 38.631a1 1 0 0 1 -.518-1.856l5.4-3.262a1 1 0 0 1 1.034 1.712l-5.4 3.262a.99.99 0 0 1 -.516.144z"/><path d="m37 40.155a1 1 0 0 1 -1-1v-6.31a1 1 0 0 1 2 0v6.31a1 1 0 0 1 -1 1z"/><path d="m39.7 38.631a.993.993 0 0 1 -.516-.144l-5.4-3.262a1 1 0 0 1 1.034-1.712l5.4 3.262a1 1 0 0 1 -.518 1.856z"/><path d="m34.3 38.631a1 1 0 0 1 -.518-1.856l5.4-3.262a1 1 0 1 1 1.034 1.712l-5.4 3.262a.993.993 0 0 1 -.516.144z"/><path d="m26.325 40.155a1 1 0 0 1 -1-1v-6.31a1 1 0 0 1 2 0v6.31a1 1 0 0 1 -1 1z"/><path d="m29.025 38.631a.99.99 0 0 1 -.516-.144l-5.4-3.262a1 1 0 1 1 1.034-1.712l5.4 3.262a1 1 0 0 1 -.518 1.856z"/><path d="m23.626 38.631a1 1 0 0 1 -.518-1.856l5.4-3.262a1 1 0 0 1 1.034 1.712l-5.4 3.262a.993.993 0 0 1 -.516.144z"/></g></svg>