<svg height="496pt" viewBox="-72 0 496 496" width="496pt" xmlns="http://www.w3.org/2000/svg"><path d="m190.34375 238.839844c5.945312-5.816406 9.65625-13.886719 9.65625-22.839844 0-17.648438-14.351562-32-32-32s-32 14.351562-32 32c0 8.953125 3.710938 17.023438 9.65625 22.839844-10.648438 7.199218-17.65625 19.375-17.65625 33.160156v32c0 4.425781 3.585938 8 8 8h64c4.414062 0 8-3.574219 8-8v-32c0-13.785156-7.007812-25.960938-17.65625-33.160156zm-38.34375-22.839844c0-8.824219 7.175781-16 16-16s16 7.175781 16 16-7.175781 16-16 16-16-7.175781-16-16zm40 80h-48v-24c0-13.230469 10.769531-24 24-24s24 10.769531 24 24zm0 0"/><path d="m286.34375 238.839844c5.945312-5.816406 9.65625-13.886719 9.65625-22.839844 0-17.648438-14.351562-32-32-32s-32 14.351562-32 32c0 8.953125 3.710938 17.023438 9.65625 22.839844-10.648438 7.199218-17.65625 19.375-17.65625 33.160156v32c0 4.425781 3.585938 8 8 8h64c4.414062 0 8-3.574219 8-8v-32c0-13.785156-7.007812-25.960938-17.65625-33.160156zm-38.34375-22.839844c0-8.824219 7.175781-16 16-16s16 7.175781 16 16-7.175781 16-16 16-16-7.175781-16-16zm40 80h-48v-24c0-13.230469 10.769531-24 24-24s24 10.769531 24 24zm0 0"/><path d="m312 136h-40v-96c0-22.054688-17.945312-40-40-40h-192c-22.054688 0-40 17.945312-40 40v416c0 22.054688 17.945312 40 40 40h192c22.054688 0 40-17.945312 40-40v-96h40c22.054688 0 40-17.945312 40-40v-144c0-22.054688-17.945312-40-40-40zm-91.3125-120-32 32h-105.375l-32-32zm-12.6875 464h-144v-8c0-4.414062 3.59375-8 8-8h128c4.40625 0 8 3.585938 8 8zm48-24c0 13.230469-10.769531 24-24 24h-8v-8c0-13.230469-10.769531-24-24-24h-128c-13.230469 0-24 10.769531-24 24v8h-8c-13.230469 0-24-10.769531-24-24v-416c0-9.902344 6.03125-18.414062 14.609375-22.078125l43.734375 43.734375c1.496094 1.503906 3.535156 2.34375 5.65625 2.34375h112c2.121094 0 4.160156-.839844 5.65625-2.34375l43.734375-43.734375c8.578125 3.664063 14.609375 12.175781 14.609375 22.078125v96h-136c-22.054688 0-40 17.945312-40 40v144c0 22.054688 17.945312 40 40 40h136zm80-136c0 13.230469-10.769531 24-24 24h-192c-13.230469 0-24-10.769531-24-24v-144c0-13.230469 10.769531-24 24-24h192c13.230469 0 24 10.769531 24 24zm0 0"/></svg>