<svg height="512" viewBox="0 0 74 74" width="512" xmlns="http://www.w3.org/2000/svg"><g id="line_icons" data-name="line icons"><path d="m50.054 72.578h-34.681a4.916 4.916 0 0 1 -4.91-4.91v-60.18a4.916 4.916 0 0 1 4.91-4.91h34.681a4.915 4.915 0 0 1 4.909 4.91v60.18a4.915 4.915 0 0 1 -4.909 4.91zm-34.681-68a2.914 2.914 0 0 0 -2.91 2.91v60.18a2.914 2.914 0 0 0 2.91 2.91h34.681a2.913 2.913 0 0 0 2.909-2.91v-60.18a2.913 2.913 0 0 0 -2.909-2.91z"/><path d="m48.963 60.578h-32.5a1 1 0 0 1 -1-1v-45.83a1 1 0 0 1 1-1h32.5a1 1 0 0 1 1 1v45.83a1 1 0 0 1 -1 1zm-31.5-2h30.5v-43.83h-30.5z"/><path d="m34.588 68.224h-3.75a2.834 2.834 0 0 1 0-5.667h3.75a2.834 2.834 0 1 1 0 5.667zm-3.75-3.667a.834.834 0 0 0 0 1.667h3.75a.834.834 0 1 0 0-1.667z"/><path d="m28.127 9.828h-1a1 1 0 0 1 0-2h1a1 1 0 1 1 0 2z"/><path d="m33.212 9.828h-1a1 1 0 0 1 0-2h1a1 1 0 1 1 0 2z"/><path d="m38.3 9.828h-1a1 1 0 0 1 0-2h1a1 1 0 1 1 0 2z"/><path d="m32.715 31.373a5.96 5.96 0 1 1 5.96-5.96 5.967 5.967 0 0 1 -5.96 5.96zm0-9.92a3.96 3.96 0 1 0 3.96 3.96 3.964 3.964 0 0 0 -3.96-3.96z"/><path d="m44.04 44.141h-22.653a1 1 0 0 1 -1-1.1c.75-7.852 4.2-9.4 9-10.728a.992.992 0 0 1 .859.159 4.239 4.239 0 0 0 4.929 0 .991.991 0 0 1 .86-.159c4.792 1.33 8.242 2.878 8.992 10.728a1 1 0 0 1 -.995 1.1zm-21.528-2h20.4c-.79-5.557-3.207-6.7-6.966-7.772a6.269 6.269 0 0 1 -6.464 0c-3.759 1.069-6.182 2.214-6.97 7.772z"/><path d="m39.93 53.245a.5.5 0 0 1 -.5-.5v-3.583a.5.5 0 0 1 1 0v3.583a.5.5 0 0 1 -.5.5z"/><path d="m25.5 53.245a.5.5 0 0 1 -.5-.5v-3.583a.5.5 0 1 1 1 0v3.583a.5.5 0 0 1 -.5.5z"/><path d="m23.981 52.287a.5.5 0 0 1 -.25-.933l3.1-1.792a.5.5 0 0 1 .5.866l-3.1 1.792a.5.5 0 0 1 -.25.067z"/><path d="m27.013 52.287a.5.5 0 0 1 -.25-.067l-3.1-1.792a.5.5 0 0 1 .5-.866l3.1 1.792a.5.5 0 0 1 -.25.933z"/><path d="m32.713 53.245a.5.5 0 0 1 -.5-.5v-3.583a.5.5 0 0 1 1 0v3.583a.5.5 0 0 1 -.5.5z"/><path d="m31.2 52.287a.5.5 0 0 1 -.25-.933l3.1-1.792a.5.5 0 0 1 .5.866l-3.1 1.792a.5.5 0 0 1 -.25.067z"/><path d="m34.229 52.287a.5.5 0 0 1 -.25-.067l-3.1-1.792a.5.5 0 0 1 .5-.866l3.1 1.792a.5.5 0 0 1 -.25.933z"/><path d="m38.414 52.287a.5.5 0 0 1 -.25-.933l3.1-1.792a.5.5 0 0 1 .5.866l-3.1 1.792a.5.5 0 0 1 -.25.067z"/><path d="m41.445 52.287a.5.5 0 0 1 -.25-.067l-3.1-1.792a.5.5 0 0 1 .5-.866l3.1 1.792a.5.5 0 0 1 -.25.933z"/></g></svg>