<svg id="line_icons" height="512" viewBox="0 0 74 74" width="512" xmlns="http://www.w3.org/2000/svg" data-name="line icons"><path d="m37 72a34.98 34.98 0 1 1 32.962-23.224 1 1 0 0 1 -1.883-.676 32.981 32.981 0 1 0 -19.979 19.981 1 1 0 1 1 .675 1.882 34.713 34.713 0 0 1 -11.775 2.037z"/><path d="m37 72c-10.216 0-18.217-15.375-18.217-35s8.001-35 18.217-35c10.049 0 18.226 15.7 18.226 35 0 1.417-.039 2.711-.12 3.959a1 1 0 1 1 -2-.129c.078-1.2.116-2.456.116-3.83 0-18.195-7.28-33-16.228-33s-16.215 14.8-16.215 33 7.279 33 16.221 33c2.645 0 5.279-1.367 7.621-3.953a1 1 0 0 1 1.479 1.342c-2.729 3.016-5.877 4.611-9.1 4.611z"/><path d="m37 71.9a1 1 0 0 1 -1-1v-67.9a1 1 0 0 1 2 0v67.9a1 1 0 0 1 -1 1z"/><path d="m40.939 54.771h-33.354a1 1 0 0 1 0-2h33.354a1 1 0 1 1 0 2z"/><path d="m70.948 37.949h-67.891a1 1 0 0 1 0-2h67.891a1 1 0 0 1 0 2z"/><path d="m66.42 21.128h-58.834a1 1 0 1 1 0-2h58.834a1 1 0 0 1 0 2z"/><path d="m55.893 58.554c-3.387 0-6.248-3.162-6.248-6.906 0-4.081 2.569-6.932 6.248-6.932s6.247 2.851 6.247 6.932c0 3.744-2.861 6.906-6.247 6.906zm0-11.838c-2.541 0-4.248 1.982-4.248 4.932 0 2.66 1.945 4.906 4.248 4.906s4.247-2.246 4.247-4.906c0-2.948-1.707-4.932-4.247-4.932z"/><path d="m66.414 67.718a1 1 0 0 1 -1-.982 5.733 5.733 0 0 0 -5.714-5.593h-.374a6.483 6.483 0 0 1 -6.864 0h-.374a5.733 5.733 0 0 0 -5.715 5.593 1.017 1.017 0 0 1 -1.018.982 1 1 0 0 1 -.982-1.017 7.742 7.742 0 0 1 7.715-7.558h.676a1 1 0 0 1 .574.181 4.463 4.463 0 0 0 5.112 0 1 1 0 0 1 .574-.181h.676a7.742 7.742 0 0 1 7.714 7.557 1 1 0 0 1 -.982 1.017z"/><path d="m50.077 70.839a1 1 0 0 1 -1-1v-4.129a1 1 0 0 1 2 0v4.129a1 1 0 0 1 -1 1z"/><path d="m61.709 70.839a1 1 0 0 1 -1-1v-4.129a1 1 0 0 1 2 0v4.129a1 1 0 0 1 -1 1z"/><path d="m55.893 72a16.108 16.108 0 1 1 16.107-16.111 16.127 16.127 0 0 1 -16.107 16.111zm0-30.215a14.108 14.108 0 1 0 14.107 14.104 14.124 14.124 0 0 0 -14.107-14.107z"/></svg>